<svg width="20" height="20" viewBox="0 0 20 20" fill="none" xmlns="http://www.w3.org/2000/svg">
<path d="M17 4.99935C17 4.77834 16.9122 4.56637 16.7559 4.41009C16.5996 4.25381 16.3877 4.16602 16.1667 4.16602H1.16667C0.945654 4.16602 0.73369 4.25381 0.577412 4.41009C0.421131 4.56637 0.333334 4.77834 0.333334 4.99935C0.333334 5.22036 0.421131 5.43232 0.577412 5.5886C0.73369 5.74488 0.945654 5.83268 1.16667 5.83268H16.1667C16.3877 5.83268 16.5996 5.74488 16.7559 5.5886C16.9122 5.43232 17 5.22036 17 4.99935ZM13.6667 9.99935C13.6667 9.77834 13.5789 9.56637 13.4226 9.41009C13.2663 9.25381 13.0543 9.16602 12.8333 9.16602H4.5C4.27899 9.16602 4.06702 9.25381 3.91074 9.41009C3.75446 9.56637 3.66667 9.77834 3.66667 9.99935C3.66667 10.2204 3.75446 10.4323 3.91074 10.5886C4.06702 10.7449 4.27899 10.8327 4.5 10.8327H12.8333C13.0543 10.8327 13.2663 10.7449 13.4226 10.5886C13.5789 10.4323 13.6667 10.2204 13.6667 9.99935ZM10.3333 14.166C10.5543 14.166 10.7663 14.2538 10.9226 14.4101C11.0789 14.5664 11.1667 14.7783 11.1667 14.9993C11.1667 15.2204 11.0789 15.4323 10.9226 15.5886C10.7663 15.7449 10.5543 15.8327 10.3333 15.8327H7C6.77899 15.8327 6.56703 15.7449 6.41074 15.5886C6.25446 15.4323 6.16667 15.2204 6.16667 14.9993C6.16667 14.7783 6.25446 14.5664 6.41074 14.4101C6.56703 14.2538 6.77899 14.166 7 14.166H10.3333Z" fill="#111827"/>
</svg>
